<mxfile host="app.diagrams.net" modified="2024-07-10T05:45:36.899Z" agent="Mozilla/5.0 (Windows NT 10.0; Win64; x64) AppleWebKit/537.36 (KHTML, like Gecko) Chrome/126.0.0.0 Safari/537.36" etag="VaEGTzpGNd1ddCWRMR3i" version="24.6.4" type="device">
  <diagram name="Page-1" id="_GOZDEWM_-PqfuubD3gv">
    <mxGraphModel dx="2328" dy="1831" grid="1" gridSize="10" guides="1" tooltips="1" connect="1" arrows="1" fold="1" page="1" pageScale="1" pageWidth="827" pageHeight="1169" math="0" shadow="0">
      <root>
        <mxCell id="0" />
        <mxCell id="1" parent="0" />
        <mxCell id="atCEhsAOBHlKAzHyUvqW-1" value="AWS Account" style="points=[[0,0],[0.25,0],[0.5,0],[0.75,0],[1,0],[1,0.25],[1,0.5],[1,0.75],[1,1],[0.75,1],[0.5,1],[0.25,1],[0,1],[0,0.75],[0,0.5],[0,0.25]];outlineConnect=0;gradientColor=none;html=1;whiteSpace=wrap;fontSize=12;fontStyle=0;container=1;pointerEvents=0;collapsible=0;recursiveResize=0;shape=mxgraph.aws4.group;grIcon=mxgraph.aws4.group_account;strokeColor=#CD2264;fillColor=none;verticalAlign=top;align=left;spacingLeft=30;fontColor=#CD2264;dashed=0;" vertex="1" parent="1">
          <mxGeometry x="-40" y="40" width="940" height="540" as="geometry" />
        </mxCell>
        <mxCell id="atCEhsAOBHlKAzHyUvqW-23" value="Internet&#xa;gateway" style="sketch=0;outlineConnect=0;fontColor=#232F3E;gradientColor=none;strokeColor=#232F3E;fillColor=#ffffff;dashed=0;verticalLabelPosition=bottom;verticalAlign=top;align=center;html=1;fontSize=12;fontStyle=0;aspect=fixed;shape=mxgraph.aws4.resourceIcon;resIcon=mxgraph.aws4.internet_gateway;" vertex="1" parent="atCEhsAOBHlKAzHyUvqW-1">
          <mxGeometry x="-30" y="240" width="60" height="60" as="geometry" />
        </mxCell>
        <mxCell id="atCEhsAOBHlKAzHyUvqW-4" value="VPC" style="points=[[0,0],[0.25,0],[0.5,0],[0.75,0],[1,0],[1,0.25],[1,0.5],[1,0.75],[1,1],[0.75,1],[0.5,1],[0.25,1],[0,1],[0,0.75],[0,0.5],[0,0.25]];outlineConnect=0;gradientColor=none;html=1;whiteSpace=wrap;fontSize=12;fontStyle=0;container=1;pointerEvents=0;collapsible=0;recursiveResize=0;shape=mxgraph.aws4.group;grIcon=mxgraph.aws4.group_vpc2;strokeColor=#8C4FFF;fillColor=none;verticalAlign=top;align=left;spacingLeft=30;fontColor=#AAB7B8;dashed=0;" vertex="1" parent="1">
          <mxGeometry x="-20" y="60" width="910" height="510" as="geometry" />
        </mxCell>
        <mxCell id="atCEhsAOBHlKAzHyUvqW-6" value="Availability zone" style="sketch=0;outlineConnect=0;gradientColor=none;html=1;whiteSpace=wrap;fontSize=12;fontStyle=0;shape=mxgraph.aws4.group;grIcon=mxgraph.aws4.group_availability_zone;strokeColor=#545B64;fillColor=none;verticalAlign=top;align=left;spacingLeft=30;fontColor=#545B64;dashed=1;" vertex="1" parent="atCEhsAOBHlKAzHyUvqW-4">
          <mxGeometry x="25" y="270" width="860" height="210" as="geometry" />
        </mxCell>
        <mxCell id="atCEhsAOBHlKAzHyUvqW-8" value="Public subnet" style="points=[[0,0],[0.25,0],[0.5,0],[0.75,0],[1,0],[1,0.25],[1,0.5],[1,0.75],[1,1],[0.75,1],[0.5,1],[0.25,1],[0,1],[0,0.75],[0,0.5],[0,0.25]];outlineConnect=0;gradientColor=none;html=1;whiteSpace=wrap;fontSize=12;fontStyle=0;container=1;pointerEvents=0;collapsible=0;recursiveResize=0;shape=mxgraph.aws4.group;grIcon=mxgraph.aws4.group_security_group;grStroke=0;strokeColor=#7AA116;fillColor=#F2F6E8;verticalAlign=top;align=left;spacingLeft=30;fontColor=#248814;dashed=0;" vertex="1" parent="atCEhsAOBHlKAzHyUvqW-4">
          <mxGeometry x="369" y="320" width="130" height="130" as="geometry" />
        </mxCell>
        <mxCell id="atCEhsAOBHlKAzHyUvqW-21" value="" style="outlineConnect=0;dashed=0;verticalLabelPosition=bottom;verticalAlign=top;align=center;html=1;shape=mxgraph.aws3.vpc_nat_gateway;fillColor=#F58536;gradientColor=none;" vertex="1" parent="atCEhsAOBHlKAzHyUvqW-8">
          <mxGeometry x="30" y="37" width="69" height="72" as="geometry" />
        </mxCell>
        <mxCell id="atCEhsAOBHlKAzHyUvqW-12" value="Private subnet" style="points=[[0,0],[0.25,0],[0.5,0],[0.75,0],[1,0],[1,0.25],[1,0.5],[1,0.75],[1,1],[0.75,1],[0.5,1],[0.25,1],[0,1],[0,0.75],[0,0.5],[0,0.25]];outlineConnect=0;gradientColor=none;html=1;whiteSpace=wrap;fontSize=12;fontStyle=0;container=1;pointerEvents=0;collapsible=0;recursiveResize=0;shape=mxgraph.aws4.group;grIcon=mxgraph.aws4.group_security_group;grStroke=0;strokeColor=#00A4A6;fillColor=#E6F6F7;verticalAlign=top;align=left;spacingLeft=30;fontColor=#147EBA;dashed=0;" vertex="1" parent="atCEhsAOBHlKAzHyUvqW-4">
          <mxGeometry x="130" y="320" width="130" height="130" as="geometry" />
        </mxCell>
        <mxCell id="atCEhsAOBHlKAzHyUvqW-15" value="" style="outlineConnect=0;dashed=0;verticalLabelPosition=bottom;verticalAlign=top;align=center;html=1;shape=mxgraph.aws3.ec2;fillColor=#F58534;gradientColor=none;" vertex="1" parent="atCEhsAOBHlKAzHyUvqW-12">
          <mxGeometry x="27" y="30" width="76.5" height="93" as="geometry" />
        </mxCell>
        <mxCell id="atCEhsAOBHlKAzHyUvqW-13" value="Private subnet" style="points=[[0,0],[0.25,0],[0.5,0],[0.75,0],[1,0],[1,0.25],[1,0.5],[1,0.75],[1,1],[0.75,1],[0.5,1],[0.25,1],[0,1],[0,0.75],[0,0.5],[0,0.25]];outlineConnect=0;gradientColor=none;html=1;whiteSpace=wrap;fontSize=12;fontStyle=0;container=1;pointerEvents=0;collapsible=0;recursiveResize=0;shape=mxgraph.aws4.group;grIcon=mxgraph.aws4.group_security_group;grStroke=0;strokeColor=#00A4A6;fillColor=#E6F6F7;verticalAlign=top;align=left;spacingLeft=30;fontColor=#147EBA;dashed=0;" vertex="1" parent="atCEhsAOBHlKAzHyUvqW-4">
          <mxGeometry x="640" y="320" width="130" height="130" as="geometry" />
        </mxCell>
        <mxCell id="atCEhsAOBHlKAzHyUvqW-17" value="" style="image;html=1;image=img/lib/clip_art/networking/Firewall_128x128.png" vertex="1" parent="atCEhsAOBHlKAzHyUvqW-13">
          <mxGeometry x="25" y="37" width="80" height="80" as="geometry" />
        </mxCell>
        <mxCell id="atCEhsAOBHlKAzHyUvqW-29" value="" style="endArrow=classic;html=1;rounded=0;" edge="1" parent="atCEhsAOBHlKAzHyUvqW-4" source="atCEhsAOBHlKAzHyUvqW-8" target="atCEhsAOBHlKAzHyUvqW-13">
          <mxGeometry width="50" height="50" relative="1" as="geometry">
            <mxPoint x="410" y="260" as="sourcePoint" />
            <mxPoint x="460" y="210" as="targetPoint" />
          </mxGeometry>
        </mxCell>
        <mxCell id="atCEhsAOBHlKAzHyUvqW-30" value="" style="endArrow=classic;html=1;rounded=0;" edge="1" parent="atCEhsAOBHlKAzHyUvqW-4">
          <mxGeometry width="50" height="50" relative="1" as="geometry">
            <mxPoint x="690" y="450" as="sourcePoint" />
            <mxPoint x="210" y="450" as="targetPoint" />
            <Array as="points">
              <mxPoint x="690" y="470" />
              <mxPoint x="210" y="470" />
            </Array>
          </mxGeometry>
        </mxCell>
        <mxCell id="atCEhsAOBHlKAzHyUvqW-5" value="Availability zone" style="sketch=0;outlineConnect=0;gradientColor=none;html=1;whiteSpace=wrap;fontSize=12;fontStyle=0;shape=mxgraph.aws4.group;grIcon=mxgraph.aws4.group_availability_zone;strokeColor=#545B64;fillColor=none;verticalAlign=top;align=left;spacingLeft=30;fontColor=#545B64;dashed=1;" vertex="1" parent="1">
          <mxGeometry x="10" y="90" width="860" height="210" as="geometry" />
        </mxCell>
        <mxCell id="atCEhsAOBHlKAzHyUvqW-7" value="Public subnet" style="points=[[0,0],[0.25,0],[0.5,0],[0.75,0],[1,0],[1,0.25],[1,0.5],[1,0.75],[1,1],[0.75,1],[0.5,1],[0.25,1],[0,1],[0,0.75],[0,0.5],[0,0.25]];outlineConnect=0;gradientColor=none;html=1;whiteSpace=wrap;fontSize=12;fontStyle=0;container=1;pointerEvents=0;collapsible=0;recursiveResize=0;shape=mxgraph.aws4.group;grIcon=mxgraph.aws4.group_security_group;grStroke=0;strokeColor=#7AA116;fillColor=#F2F6E8;verticalAlign=top;align=left;spacingLeft=30;fontColor=#248814;dashed=0;" vertex="1" parent="1">
          <mxGeometry x="349" y="120" width="130" height="130" as="geometry" />
        </mxCell>
        <mxCell id="atCEhsAOBHlKAzHyUvqW-20" value="" style="outlineConnect=0;dashed=0;verticalLabelPosition=bottom;verticalAlign=top;align=center;html=1;shape=mxgraph.aws3.vpc_nat_gateway;fillColor=#F58534;gradientColor=none;" vertex="1" parent="atCEhsAOBHlKAzHyUvqW-7">
          <mxGeometry x="30" y="33" width="69" height="72" as="geometry" />
        </mxCell>
        <mxCell id="atCEhsAOBHlKAzHyUvqW-9" value="Private subnet" style="points=[[0,0],[0.25,0],[0.5,0],[0.75,0],[1,0],[1,0.25],[1,0.5],[1,0.75],[1,1],[0.75,1],[0.5,1],[0.25,1],[0,1],[0,0.75],[0,0.5],[0,0.25]];outlineConnect=0;gradientColor=none;html=1;whiteSpace=wrap;fontSize=12;fontStyle=0;container=1;pointerEvents=0;collapsible=0;recursiveResize=0;shape=mxgraph.aws4.group;grIcon=mxgraph.aws4.group_security_group;grStroke=0;strokeColor=#00A4A6;fillColor=#E6F6F7;verticalAlign=top;align=left;spacingLeft=30;fontColor=#147EBA;dashed=0;" vertex="1" parent="1">
          <mxGeometry x="110" y="120" width="130" height="130" as="geometry" />
        </mxCell>
        <mxCell id="atCEhsAOBHlKAzHyUvqW-14" value="" style="outlineConnect=0;dashed=0;verticalLabelPosition=bottom;verticalAlign=top;align=center;html=1;shape=mxgraph.aws3.ec2;fillColor=#F58534;gradientColor=none;" vertex="1" parent="atCEhsAOBHlKAzHyUvqW-9">
          <mxGeometry x="26.75" y="28.5" width="76.5" height="93" as="geometry" />
        </mxCell>
        <mxCell id="atCEhsAOBHlKAzHyUvqW-11" value="Private subnet" style="points=[[0,0],[0.25,0],[0.5,0],[0.75,0],[1,0],[1,0.25],[1,0.5],[1,0.75],[1,1],[0.75,1],[0.5,1],[0.25,1],[0,1],[0,0.75],[0,0.5],[0,0.25]];outlineConnect=0;gradientColor=none;html=1;whiteSpace=wrap;fontSize=12;fontStyle=0;container=1;pointerEvents=0;collapsible=0;recursiveResize=0;shape=mxgraph.aws4.group;grIcon=mxgraph.aws4.group_security_group;grStroke=0;strokeColor=#00A4A6;fillColor=#E6F6F7;verticalAlign=top;align=left;spacingLeft=30;fontColor=#147EBA;dashed=0;" vertex="1" parent="1">
          <mxGeometry x="610" y="120" width="130" height="130" as="geometry" />
        </mxCell>
        <mxCell id="atCEhsAOBHlKAzHyUvqW-16" value="" style="image;html=1;image=img/lib/clip_art/networking/Firewall_128x128.png" vertex="1" parent="atCEhsAOBHlKAzHyUvqW-11">
          <mxGeometry x="25" y="25" width="80" height="80" as="geometry" />
        </mxCell>
        <mxCell id="atCEhsAOBHlKAzHyUvqW-22" value="" style="image;aspect=fixed;perimeter=ellipsePerimeter;html=1;align=center;shadow=0;dashed=0;spacingTop=3;image=img/lib/active_directory/internet_globe.svg;" vertex="1" parent="1">
          <mxGeometry x="-200" y="285" width="50" height="50" as="geometry" />
        </mxCell>
        <mxCell id="atCEhsAOBHlKAzHyUvqW-24" value="" style="endArrow=classic;startArrow=classic;html=1;rounded=0;exitX=1;exitY=0.5;exitDx=0;exitDy=0;" edge="1" parent="1" source="atCEhsAOBHlKAzHyUvqW-22" target="atCEhsAOBHlKAzHyUvqW-23">
          <mxGeometry width="50" height="50" relative="1" as="geometry">
            <mxPoint x="390" y="320" as="sourcePoint" />
            <mxPoint x="440" y="270" as="targetPoint" />
          </mxGeometry>
        </mxCell>
        <mxCell id="atCEhsAOBHlKAzHyUvqW-25" value="" style="endArrow=classic;startArrow=classic;html=1;rounded=0;" edge="1" parent="1" source="atCEhsAOBHlKAzHyUvqW-23" target="atCEhsAOBHlKAzHyUvqW-8">
          <mxGeometry width="50" height="50" relative="1" as="geometry">
            <mxPoint x="390" y="320" as="sourcePoint" />
            <mxPoint x="440" y="270" as="targetPoint" />
            <Array as="points">
              <mxPoint x="414" y="310" />
            </Array>
          </mxGeometry>
        </mxCell>
        <mxCell id="atCEhsAOBHlKAzHyUvqW-26" value="" style="endArrow=classic;startArrow=classic;html=1;rounded=0;entryX=0.477;entryY=0.762;entryDx=0;entryDy=0;entryPerimeter=0;" edge="1" parent="1" target="atCEhsAOBHlKAzHyUvqW-5">
          <mxGeometry width="50" height="50" relative="1" as="geometry">
            <mxPoint x="-10" y="310" as="sourcePoint" />
            <mxPoint x="440" y="270" as="targetPoint" />
            <Array as="points">
              <mxPoint x="420" y="310" />
            </Array>
          </mxGeometry>
        </mxCell>
        <mxCell id="atCEhsAOBHlKAzHyUvqW-27" value="" style="endArrow=classic;html=1;rounded=0;" edge="1" parent="1" source="atCEhsAOBHlKAzHyUvqW-7" target="atCEhsAOBHlKAzHyUvqW-11">
          <mxGeometry width="50" height="50" relative="1" as="geometry">
            <mxPoint x="390" y="320" as="sourcePoint" />
            <mxPoint x="440" y="270" as="targetPoint" />
            <Array as="points" />
          </mxGeometry>
        </mxCell>
        <mxCell id="atCEhsAOBHlKAzHyUvqW-28" value="" style="endArrow=classic;html=1;rounded=0;" edge="1" parent="1" source="atCEhsAOBHlKAzHyUvqW-11">
          <mxGeometry width="50" height="50" relative="1" as="geometry">
            <mxPoint x="390" y="320" as="sourcePoint" />
            <mxPoint x="170" y="120" as="targetPoint" />
            <Array as="points">
              <mxPoint x="675" y="100" />
              <mxPoint x="170" y="100" />
            </Array>
          </mxGeometry>
        </mxCell>
        <mxCell id="atCEhsAOBHlKAzHyUvqW-31" value="10.0.0.0/22 local Network" style="rounded=0;whiteSpace=wrap;html=1;" vertex="1" parent="1">
          <mxGeometry x="100" y="-60" width="120" height="60" as="geometry" />
        </mxCell>
        <mxCell id="atCEhsAOBHlKAzHyUvqW-32" value="10.0.0.0/22 local network&lt;div&gt;0.0.0.0/0&amp;nbsp;&lt;/div&gt;" style="rounded=0;whiteSpace=wrap;html=1;" vertex="1" parent="1">
          <mxGeometry x="350" y="-60" width="120" height="60" as="geometry" />
        </mxCell>
        <mxCell id="atCEhsAOBHlKAzHyUvqW-33" value="10.0.4.0/22 Local network" style="rounded=0;whiteSpace=wrap;html=1;" vertex="1" parent="1">
          <mxGeometry x="640" y="-60" width="120" height="60" as="geometry" />
        </mxCell>
        <mxCell id="atCEhsAOBHlKAzHyUvqW-34" value="11.0.0.0/22 local Network" style="rounded=0;whiteSpace=wrap;html=1;" vertex="1" parent="1">
          <mxGeometry x="115" y="600" width="120" height="60" as="geometry" />
        </mxCell>
        <mxCell id="atCEhsAOBHlKAzHyUvqW-35" value="11.0.0.0/22 local network&lt;div&gt;0.0.0.0/0&amp;nbsp;&lt;/div&gt;" style="rounded=0;whiteSpace=wrap;html=1;" vertex="1" parent="1">
          <mxGeometry x="354" y="600" width="120" height="60" as="geometry" />
        </mxCell>
        <mxCell id="atCEhsAOBHlKAzHyUvqW-36" value="11.0.4.0/22 Local network" style="rounded=0;whiteSpace=wrap;html=1;" vertex="1" parent="1">
          <mxGeometry x="625" y="600" width="120" height="60" as="geometry" />
        </mxCell>
        <mxCell id="atCEhsAOBHlKAzHyUvqW-37" value="" style="endArrow=classic;html=1;rounded=0;exitX=0.5;exitY=1;exitDx=0;exitDy=0;entryX=0.383;entryY=-0.015;entryDx=0;entryDy=0;entryPerimeter=0;" edge="1" parent="1" source="atCEhsAOBHlKAzHyUvqW-31" target="atCEhsAOBHlKAzHyUvqW-9">
          <mxGeometry width="50" height="50" relative="1" as="geometry">
            <mxPoint x="390" y="120" as="sourcePoint" />
            <mxPoint x="440" y="70" as="targetPoint" />
          </mxGeometry>
        </mxCell>
        <mxCell id="atCEhsAOBHlKAzHyUvqW-38" value="" style="endArrow=classic;html=1;rounded=0;exitX=0.5;exitY=1;exitDx=0;exitDy=0;" edge="1" parent="1" source="atCEhsAOBHlKAzHyUvqW-32" target="atCEhsAOBHlKAzHyUvqW-7">
          <mxGeometry width="50" height="50" relative="1" as="geometry">
            <mxPoint x="390" y="120" as="sourcePoint" />
            <mxPoint x="440" y="70" as="targetPoint" />
          </mxGeometry>
        </mxCell>
        <mxCell id="atCEhsAOBHlKAzHyUvqW-39" value="" style="endArrow=classic;html=1;rounded=0;exitX=0.563;exitY=0.967;exitDx=0;exitDy=0;exitPerimeter=0;entryX=0.75;entryY=0;entryDx=0;entryDy=0;" edge="1" parent="1" source="atCEhsAOBHlKAzHyUvqW-33" target="atCEhsAOBHlKAzHyUvqW-11">
          <mxGeometry width="50" height="50" relative="1" as="geometry">
            <mxPoint x="390" y="120" as="sourcePoint" />
            <mxPoint x="440" y="70" as="targetPoint" />
          </mxGeometry>
        </mxCell>
        <mxCell id="atCEhsAOBHlKAzHyUvqW-40" value="" style="endArrow=classic;html=1;rounded=0;exitX=0.5;exitY=0;exitDx=0;exitDy=0;" edge="1" parent="1" source="atCEhsAOBHlKAzHyUvqW-34" target="atCEhsAOBHlKAzHyUvqW-12">
          <mxGeometry width="50" height="50" relative="1" as="geometry">
            <mxPoint x="390" y="720" as="sourcePoint" />
            <mxPoint x="440" y="670" as="targetPoint" />
          </mxGeometry>
        </mxCell>
        <mxCell id="atCEhsAOBHlKAzHyUvqW-41" value="" style="endArrow=classic;html=1;rounded=0;" edge="1" parent="1" source="atCEhsAOBHlKAzHyUvqW-35" target="atCEhsAOBHlKAzHyUvqW-8">
          <mxGeometry width="50" height="50" relative="1" as="geometry">
            <mxPoint x="360" y="780" as="sourcePoint" />
            <mxPoint x="410" y="730" as="targetPoint" />
          </mxGeometry>
        </mxCell>
        <mxCell id="atCEhsAOBHlKAzHyUvqW-42" value="" style="endArrow=classic;html=1;rounded=0;exitX=0.5;exitY=0;exitDx=0;exitDy=0;" edge="1" parent="1" source="atCEhsAOBHlKAzHyUvqW-36" target="atCEhsAOBHlKAzHyUvqW-13">
          <mxGeometry width="50" height="50" relative="1" as="geometry">
            <mxPoint x="685" y="590" as="sourcePoint" />
            <mxPoint x="440" y="670" as="targetPoint" />
          </mxGeometry>
        </mxCell>
      </root>
    </mxGraphModel>
  </diagram>
</mxfile>
